<?xml version="1.0" encoding="utf-8"?>
<!-- Generator: Adobe Illustrator 17.0.1, SVG Export Plug-In . SVG Version: 6.00 Build 0)  -->
<!DOCTYPE svg PUBLIC "-//W3C//DTD SVG 1.1//EN" "http://www.w3.org/Graphics/SVG/1.1/DTD/svg11.dtd">
<svg version="1.1" id="Layer_1" xmlns="http://www.w3.org/2000/svg" xmlns:xlink="http://www.w3.org/1999/xlink" x="0px" y="0px"
	 width="40px" height="40px" viewBox="0 0 40 40" enable-background="new 0 0 40 40" xml:space="preserve">
<g>
	<path fill="#FFFFFF" d="M27.843,12.077H11.63c-0.657,0-1.19,0.533-1.19,1.19v12.197c0,0.657,0.533,1.19,1.19,1.19h2.031
		l-2.031,5.652l11.179-5.652h5.034c0.657,0,1.19-0.533,1.19-1.19V13.266C29.033,12.609,28.5,12.077,27.843,12.077z"/>
	<path fill="#FFFFFF" d="M39.5,17.078c0-4.725-3.831-8.556-8.556-8.556c-0.967,0-1.893,0.168-2.76,0.464
		c-0.428-4.325-4.076-7.703-8.513-7.703c-4.373,0-7.973,3.283-8.487,7.517c-0.682-0.175-1.392-0.278-2.128-0.278
		c-4.725,0-8.556,3.831-8.556,8.556c0,3.703,2.356,6.846,5.648,8.038c-1.037,1.416-1.657,3.156-1.657,5.045
		c0,4.725,3.831,8.556,8.556,8.556c2.72,0,5.139-1.274,6.706-3.252c1.567,1.979,3.986,3.252,6.706,3.252
		c4.725,0,8.556-3.831,8.556-8.556c0-1.826-0.577-3.516-1.552-4.905C36.959,24.18,39.5,20.926,39.5,17.078z M29.033,25.464
		c0,0.657-0.533,1.19-1.19,1.19h-5.034L11.63,32.306l2.031-5.652H11.63c-0.657,0-1.19-0.533-1.19-1.19V13.267
		c0-0.657,0.533-1.19,1.19-1.19h16.213c0.657,0,1.19,0.532,1.19,1.189V25.464z"/>
</g>
</svg>
