<?xml version="1.0" encoding="utf-8"?>
<!-- Generator: Adobe Illustrator 17.0.1, SVG Export Plug-In . SVG Version: 6.00 Build 0)  -->
<!DOCTYPE svg PUBLIC "-//W3C//DTD SVG 1.1//EN" "http://www.w3.org/Graphics/SVG/1.1/DTD/svg11.dtd">
<svg version="1.1" id="Layer_1" xmlns="http://www.w3.org/2000/svg" xmlns:xlink="http://www.w3.org/1999/xlink" x="0px" y="0px"
	 width="40px" height="40px" viewBox="0 0 40 40" enable-background="new 0 0 40 40" xml:space="preserve">
<path fill="#FFFFFF" d="M37.442,1.157H2.55c-1.086,0-1.966,1.17-1.966,2.613v32.617C0.584,37.83,1.464,39,2.55,39h34.892
	c1.086,0,1.966-1.17,1.966-2.613V3.77C39.408,2.327,38.528,1.157,37.442,1.157z M24.806,9.481c2.698,0,4.882,2.187,4.882,4.885
	c0,2.696-2.184,4.882-4.882,4.882c-2.696,0-4.883-2.186-4.883-4.882C19.923,11.668,22.11,9.481,24.806,9.481z M3.55,35.604
	c0.206-4.73,2.576-13.92,6.03-17.306c3.092-3.009,5.72-0.377,7.783,2.687c1.907,2.848,3.567,5.367,4.964,6.95
	c2.302,2.401,4.269-1.238,6.683-2.436c3.519-1.747,6.418,7.335,7.165,10.115L3.55,35.604z"/>
</svg>
