<?xml version="1.0" encoding="utf-8"?>
<!-- Generator: Adobe Illustrator 17.0.1, SVG Export Plug-In . SVG Version: 6.00 Build 0)  -->
<!DOCTYPE svg PUBLIC "-//W3C//DTD SVG 1.1//EN" "http://www.w3.org/Graphics/SVG/1.1/DTD/svg11.dtd">
<svg version="1.1" id="Layer_1" xmlns="http://www.w3.org/2000/svg" xmlns:xlink="http://www.w3.org/1999/xlink" x="0px" y="0px"
	 width="40px" height="40px" viewBox="0 0 40 40" enable-background="new 0 0 40 40" xml:space="preserve">
<g>
	<path fill="#FFFFFF" d="M35.25,33.841c-0.146-9.245-1.354-11.879-10.593-13.546c0,0-1.301,1.657-4.332,1.657
		s-4.332-1.657-4.332-1.657C6.855,21.945,5.574,24.54,5.406,33.541c-0.014,0.735-0.02,0.774-0.022,0.688
		c0.001,0.16,0.001,0.456,0.001,0.971c0,0,2.199,4.434,14.941,4.434c12.741,0,14.94-4.434,14.94-4.434
		c0-0.331,0.001-0.561,0.001-0.718C35.265,34.534,35.26,34.432,35.25,33.841L35.25,33.841z"/>
	<path fill="#FFFFFF" d="M20.326,19.557c4.369,0,7.911-4.302,7.911-9.609s-1.163-9.609-7.911-9.609s-7.911,4.302-7.911,9.609
		C12.415,15.256,15.957,19.557,20.326,19.557L20.326,19.557z"/>
</g>
</svg>
