<?xml version="1.0" encoding="utf-8"?>
<!-- Generator: Adobe Illustrator 17.0.1, SVG Export Plug-In . SVG Version: 6.00 Build 0)  -->
<!DOCTYPE svg PUBLIC "-//W3C//DTD SVG 1.1//EN" "http://www.w3.org/Graphics/SVG/1.1/DTD/svg11.dtd">
<svg version="1.1" id="Layer_1" xmlns="http://www.w3.org/2000/svg" xmlns:xlink="http://www.w3.org/1999/xlink" x="0px" y="0px"
	 width="40px" height="40px" viewBox="0 0 40 40" enable-background="new 0 0 40 40" xml:space="preserve">
<g>
	<path fill="#FFFFFF" d="M23.679,11.696c0.832,0.322,1.608,0.796,2.331,1.424l-1.695,1.766c-0.564-0.471-1.103-0.808-1.612-1.012
		s-1.103-0.306-1.777-0.306c-1.256,0-2.284,0.502-3.084,1.506s-1.2,2.542-1.2,4.614c0,2.166,0.318,3.728,0.953,4.685
		c0.636,0.957,1.604,1.436,2.907,1.436c0.989,0,1.852-0.212,2.59-0.636v-4.237h-2.449l-0.33-2.307h5.838v7.956
		c-1.694,1.067-3.602,1.602-5.72,1.602c-2.275,0-4.021-0.722-5.237-2.166c-1.216-1.443-1.824-3.554-1.824-6.332
		c0-1.773,0.333-3.299,1-4.578s1.561-2.248,2.683-2.907s2.366-0.989,3.731-0.989C21.882,11.213,22.847,11.375,23.679,11.696z"/>
	<path fill="#FFFFFF" d="M38.908,25.29l-0.354,2.542H29.28V11.566h3.107V25.29H38.908z"/>
</g>
<path fill="#FFFFFF" d="M27.844,35.815c-11.361,0-20.57-7.081-20.57-15.815c0-8.735,9.21-15.815,20.57-15.815
	c0.028,0,0.055,0.002,0.083,0.002c-2.155-0.625-4.473-0.968-6.891-0.968C9.676,3.218,0.467,10.732,0.467,20
	s9.21,16.782,20.57,16.782c2.418,0,4.736-0.343,6.891-0.968C27.9,35.814,27.872,35.815,27.844,35.815z"/>
</svg>
