<?xml version="1.0" encoding="utf-8"?>
<!-- Generator: Adobe Illustrator 17.0.1, SVG Export Plug-In . SVG Version: 6.00 Build 0)  -->
<!DOCTYPE svg PUBLIC "-//W3C//DTD SVG 1.1//EN" "http://www.w3.org/Graphics/SVG/1.1/DTD/svg11.dtd">
<svg version="1.1" id="Layer_1" xmlns="http://www.w3.org/2000/svg" xmlns:xlink="http://www.w3.org/1999/xlink" x="0px" y="0px"
	 width="40px" height="40px" viewBox="0 0 40 40" enable-background="new 0 0 40 40" xml:space="preserve">
<g>
	<path fill="#FFFFFF" d="M34.873,31.095c-0.321,0.5-0.831,0.889-1.528,1.166c-0.697,0.276-1.395,0.415-2.092,0.415
		c-1.608,0-2.9-0.397-3.874-1.192c-0.975-0.796-1.461-1.936-1.461-3.419c0-3.343,2.931-5.014,8.794-5.014v-1.046
		c0-0.68-0.563-1.02-1.688-1.02c-0.644,0-1.198,0.107-1.663,0.322s-0.849,0.434-1.152,0.657c-0.305,0.224-0.59,0.335-0.858,0.335
		c-0.555,0-0.975-0.161-1.26-0.482c-0.286-0.322-0.43-0.706-0.43-1.153c0-0.751,0.59-1.421,1.77-2.011s2.378-0.885,3.594-0.885
		c1.787,0,3.159,0.371,4.115,1.113s1.435,1.81,1.435,3.204v8.366c0,0.572-0.174,1.059-0.522,1.461
		c-0.348,0.402-0.801,0.604-1.354,0.604c-0.482,0-0.871-0.099-1.166-0.295S35.016,31.648,34.873,31.095z M29.618,28.064
		c0,0.482,0.223,0.836,0.67,1.059c0.446,0.225,1.001,0.336,1.662,0.336c1.948,0,2.923-0.966,2.923-2.896v-0.616
		c-0.125,0-0.321,0-0.59,0c-0.501,0-0.881,0-1.14,0S32.54,25.964,32.111,26s-0.764,0.099-1.006,0.188
		c-0.241,0.09-0.491,0.21-0.75,0.362c-0.26,0.151-0.447,0.357-0.563,0.616C29.676,27.426,29.618,27.725,29.618,28.064z"/>
</g>
<g>
	<path fill="#FFFFFF" d="M1.057,28.742L8.542,8.483c0.322-0.894,0.838-1.632,1.545-2.216c0.708-0.583,1.521-0.875,2.439-0.875
		c0.943,0,1.763,0.279,2.458,0.838c0.695,0.559,1.204,1.31,1.527,2.253l7.3,20.259c0.198,0.521,0.298,0.981,0.298,1.378
		c0,0.721-0.255,1.31-0.764,1.769c-0.51,0.46-1.111,0.689-1.807,0.689c-1.391,0-2.296-0.646-2.718-1.937l-1.117-3.501H7.351
		l-1.117,3.464c-0.422,1.315-1.316,1.974-2.682,1.974c-0.745,0-1.391-0.248-1.937-0.745c-0.546-0.496-0.819-1.117-0.819-1.862
		C0.796,29.574,0.883,29.165,1.057,28.742z M12.49,11.202L8.952,22.001h7.076l-3.463-10.799H12.49z"/>
</g>
</svg>
