<?xml version="1.0" encoding="utf-8"?>
<!-- Generator: Adobe Illustrator 17.0.1, SVG Export Plug-In . SVG Version: 6.00 Build 0)  -->
<!DOCTYPE svg PUBLIC "-//W3C//DTD SVG 1.1//EN" "http://www.w3.org/Graphics/SVG/1.1/DTD/svg11.dtd">
<svg version="1.1" id="Layer_1" xmlns="http://www.w3.org/2000/svg" xmlns:xlink="http://www.w3.org/1999/xlink" x="0px" y="0px"
	 width="40px" height="40px" viewBox="0 0 40 40" enable-background="new 0 0 40 40" xml:space="preserve">
<path fill="#FFFFFF" d="M19.998,32.363c0,0.68-0.393,1.297-1.008,1.585c-0.237,0.114-0.492,0.168-0.745,0.168
	c-0.399,0-0.796-0.137-1.118-0.405L7.55,25.776H2.447c-0.968,0-1.752-0.786-1.752-1.754v-6.98c0-0.968,0.784-1.754,1.752-1.754H7.55
	l9.577-7.937c0.525-0.433,1.249-0.527,1.865-0.235c0.613,0.288,1.006,0.906,1.006,1.586V32.363z M26.731,29.625
	c-0.043,0.002-0.083,0.004-0.126,0.004c-0.463,0-0.909-0.182-1.239-0.512l-0.235-0.235c-0.614-0.614-0.687-1.586-0.168-2.284
	c1.312-1.768,2.005-3.865,2.005-6.064c0-2.367-0.788-4.586-2.274-6.419c-0.567-0.696-0.514-1.708,0.119-2.342l0.235-0.235
	c0.35-0.35,0.818-0.541,1.326-0.511c0.494,0.024,0.956,0.258,1.269,0.64c2.064,2.525,3.155,5.593,3.155,8.866
	c0,3.049-0.966,5.951-2.79,8.393C27.704,29.333,27.239,29.588,26.731,29.625L26.731,29.625z M33.975,35.039
	c-0.318,0.374-0.775,0.599-1.265,0.619c-0.024,0.002-0.049,0.002-0.075,0.002c-0.463,0-0.909-0.185-1.239-0.512l-0.229-0.231
	c-0.644-0.642-0.686-1.67-0.103-2.367c2.827-3.359,4.384-7.628,4.384-12.017c0-4.568-1.667-8.962-4.692-12.378
	c-0.613-0.694-0.583-1.743,0.069-2.397l0.231-0.231c0.341-0.342,0.784-0.532,1.292-0.516c0.482,0.014,0.938,0.229,1.26,0.589
	c3.655,4.116,5.67,9.419,5.67,14.933C39.279,25.836,37.396,30.987,33.975,35.039L33.975,35.039z"/>
</svg>
