<?xml version="1.0" encoding="utf-8"?>
<!-- Generator: Adobe Illustrator 17.0.1, SVG Export Plug-In . SVG Version: 6.00 Build 0)  -->
<!DOCTYPE svg PUBLIC "-//W3C//DTD SVG 1.1//EN" "http://www.w3.org/Graphics/SVG/1.1/DTD/svg11.dtd">
<svg version="1.1" id="Layer_1" xmlns="http://www.w3.org/2000/svg" xmlns:xlink="http://www.w3.org/1999/xlink" x="0px" y="0px"
	 width="40px" height="40px" viewBox="0 0 40 40" enable-background="new 0 0 40 40" xml:space="preserve">
<g>
	<path fill="#FFFFFF" d="M20.628,19.34h7.974c-0.082-2.894-0.69-5.703-1.776-8.308c-2.003,0.582-4.081,0.901-6.198,0.959V19.34z"/>
	<path fill="#FFFFFF" d="M27.561,9.4c1.947-0.673,3.814-1.593,5.544-2.777l0.435-0.331C30.36,3.14,26.091,1.093,21.356,0.75
		l-0.345,0.28C23.818,3.355,26.039,6.21,27.561,9.4L27.561,9.4z"/>
	<path fill="#FFFFFF" d="M20.628,2.454v8.204c1.925-0.056,3.818-0.341,5.642-0.856C24.921,7.032,23.012,4.535,20.628,2.454
		L20.628,2.454z"/>
	<path fill="#FFFFFF" d="M28.326,28.809c2.084,0.755,4.074,1.776,5.914,3.089l0.579,0.433c2.647-3.187,4.29-7.235,4.439-11.657
		h-9.326C29.856,23.496,29.307,26.24,28.326,28.809L28.326,28.809z"/>
	<path fill="#FFFFFF" d="M6.819,6.623c1.73,1.184,3.596,2.104,5.544,2.777c1.522-3.19,3.743-6.045,6.549-8.37l-0.345-0.28
		C13.823,1.092,9.543,3.15,6.36,6.311L6.819,6.623z"/>
	<path fill="#FFFFFF" d="M19.295,2.454c-2.387,2.081-4.292,4.582-5.641,7.349c1.827,0.514,3.716,0.8,5.641,0.856V2.454z"/>
	<path fill="#FFFFFF" d="M9.992,20.673H0.666c0.15,4.419,1.791,8.471,4.439,11.657l0.566-0.423c1.846-1.317,3.843-2.344,5.931-3.099
		C10.616,26.237,10.067,23.496,9.992,20.673L9.992,20.673z"/>
	<path fill="#FFFFFF" d="M11.823,10.619C9.801,9.91,7.863,8.951,6.067,7.722L5.44,7.296c-2.842,3.242-4.617,7.439-4.773,12.044
		h9.326C10.074,16.303,10.695,13.354,11.823,10.619L11.823,10.619z"/>
	<path fill="#FFFFFF" d="M11.322,19.34h7.973v-7.349c-2.117-0.058-4.195-0.377-6.197-0.959
		C12.012,13.637,11.403,16.446,11.322,19.34L11.322,19.34z"/>
	<path fill="#FFFFFF" d="M18.843,38.925c-2.943-2.462-5.219-5.502-6.731-8.887c-1.994,0.715-3.899,1.691-5.655,2.946l-0.462,0.341
		c3.181,3.333,7.534,5.532,12.392,5.924L18.843,38.925z"/>
	<path fill="#FFFFFF" d="M19.295,27.359v-6.685h-7.973c0.078,2.676,0.604,5.278,1.541,7.71
		C14.938,27.759,17.094,27.418,19.295,27.359L19.295,27.359z"/>
	<path fill="#FFFFFF" d="M33.457,32.974c-1.753-1.249-3.652-2.221-5.642-2.936c-1.512,3.395-3.794,6.435-6.734,8.887l0.455,0.325
		c4.858-0.393,9.213-2.591,12.392-5.924L33.457,32.974z"/>
	<path fill="#FFFFFF" d="M33.885,7.702c-1.811,1.239-3.755,2.204-5.785,2.917c1.125,2.735,1.75,5.684,1.831,8.721h9.326
		c-0.156-4.617-1.941-8.828-4.799-12.073L33.885,7.702z"/>
	<path fill="#FFFFFF" d="M19.295,37.559v-8.87c-2.023,0.058-4.007,0.37-5.915,0.933C14.743,32.623,16.742,35.332,19.295,37.559
		L19.295,37.559z"/>
	<path fill="#FFFFFF" d="M28.602,20.673h-7.974v6.685c2.202,0.059,4.361,0.4,6.436,1.025C27.997,25.951,28.524,23.35,28.602,20.673
		L28.602,20.673z"/>
	<path fill="#FFFFFF" d="M26.547,29.622c-1.909-0.563-3.896-0.875-5.919-0.933v8.874C23.178,35.342,25.184,32.633,26.547,29.622
		L26.547,29.622z"/>
</g>
</svg>
