<?xml version="1.0" encoding="utf-8"?>
<!-- Generator: Adobe Illustrator 17.0.1, SVG Export Plug-In . SVG Version: 6.00 Build 0)  -->
<!DOCTYPE svg PUBLIC "-//W3C//DTD SVG 1.1//EN" "http://www.w3.org/Graphics/SVG/1.1/DTD/svg11.dtd">
<svg version="1.1" id="Layer_1" xmlns="http://www.w3.org/2000/svg" xmlns:xlink="http://www.w3.org/1999/xlink" x="0px" y="0px"
	 width="40px" height="40px" viewBox="0 0 40 40" enable-background="new 0 0 40 40" xml:space="preserve">
<g>
	<path fill="#FFFFFF" d="M13.546,11.116c0-0.285-0.112-0.549-0.326-0.762l-1.03-1.03c-0.423-0.424-1.092-0.429-1.524,0l-9.603,9.603
		c-0.211,0.215-0.324,0.477-0.324,0.76c0,0.285,0.112,0.549,0.326,0.762l9.601,9.602c0.213,0.213,0.477,0.325,0.762,0.325
		c0.288,0,0.552-0.113,0.762-0.325l1.03-1.029c0.213-0.213,0.326-0.476,0.326-0.762c0-0.288-0.113-0.552-0.326-0.762l-7.81-7.811
		l7.808-7.808C13.433,11.668,13.546,11.404,13.546,11.116z"/>
	<path fill="#FFFFFF" d="M38.936,18.926l-9.603-9.602c-0.426-0.425-1.095-0.426-1.523,0l-1.03,1.029
		c-0.213,0.212-0.326,0.476-0.326,0.763c0,0.288,0.113,0.552,0.325,0.762l7.81,7.81l-7.808,7.81
		c-0.213,0.212-0.326,0.476-0.326,0.763c0,0.285,0.112,0.549,0.325,0.762l1.029,1.028c0.212,0.213,0.476,0.326,0.763,0.326
		s0.55-0.113,0.761-0.325l9.603-9.601c0.212-0.212,0.324-0.476,0.324-0.762C39.261,19.401,39.149,19.138,38.936,18.926z"/>
	<path fill="#FFFFFF" d="M24.765,5.531l-1.258-0.345c-0.273-0.09-0.557-0.06-0.81,0.084c-0.249,0.14-0.426,0.361-0.512,0.645
		L14.501,32.51c-0.087,0.284-0.057,0.569,0.086,0.824c0.14,0.248,0.36,0.424,0.648,0.511l1.256,0.344
		c0.105,0.035,0.211,0.053,0.317,0.053c0.172,0,0.339-0.046,0.497-0.136c0.247-0.139,0.423-0.359,0.512-0.643L25.499,6.87
		c0.088-0.284,0.059-0.569-0.086-0.828C25.27,5.792,25.05,5.617,24.765,5.531z"/>
</g>
</svg>
