<?xml version="1.0" encoding="utf-8"?>
<!-- Generator: Adobe Illustrator 17.0.1, SVG Export Plug-In . SVG Version: 6.00 Build 0)  -->
<!DOCTYPE svg PUBLIC "-//W3C//DTD SVG 1.1//EN" "http://www.w3.org/Graphics/SVG/1.1/DTD/svg11.dtd">
<svg version="1.1" id="Layer_1" xmlns="http://www.w3.org/2000/svg" xmlns:xlink="http://www.w3.org/1999/xlink" x="0px" y="0px"
	 width="40px" height="40px" viewBox="0 0 40 40" enable-background="new 0 0 40 40" xml:space="preserve">
<g>
	<path fill="#FFFFFF" d="M26.422,13.591H13.591v12.832h12.832L26.422,13.591L26.422,13.591z M22.141,22.141h-4.282v-4.282h4.282
		V22.141z M39.241,17.859v-4.268h-4.268V9.309c0-2.349-1.932-4.268-4.282-4.268h-4.268V0.759h-4.282v4.282h-4.282V0.759h-4.268
		v4.282H9.309c-2.349,0-4.268,1.919-4.268,4.268v4.282H0.759v4.268h4.282v4.282H0.759v4.282h4.282v4.268
		c0,2.349,1.919,4.282,4.268,4.282h4.282v4.268h4.268v-4.268h4.282v4.268h4.282v-4.268h4.268c2.349,0,4.282-1.932,4.282-4.282
		v-4.268h4.268v-4.282h-4.268v-4.282C34.973,17.859,39.241,17.859,39.241,17.859z M30.691,30.691H9.309V9.309H30.69L30.691,30.691
		L30.691,30.691z"/>
</g>
</svg>
