<?xml version="1.0" encoding="utf-8"?>
<!-- Generator: Adobe Illustrator 17.0.1, SVG Export Plug-In . SVG Version: 6.00 Build 0)  -->
<!DOCTYPE svg PUBLIC "-//W3C//DTD SVG 1.1//EN" "http://www.w3.org/Graphics/SVG/1.1/DTD/svg11.dtd">
<svg version="1.1" id="Layer_1" xmlns="http://www.w3.org/2000/svg" xmlns:xlink="http://www.w3.org/1999/xlink" x="0px" y="0px"
	 width="40px" height="40px" viewBox="0 0 40 40" enable-background="new 0 0 40 40" xml:space="preserve">
<g>
	<path fill="#FFFFFF" d="M19.994,29.305c-2.455,0-4.451,1.997-4.451,4.451c0,2.461,1.997,4.462,4.451,4.462
		c2.461,0,4.462-2.002,4.462-4.462C24.457,31.302,22.455,29.305,19.994,29.305z"/>
	<path fill="#FFFFFF" d="M30.861,18.691c-3.093-2.311-6.766-3.532-10.625-3.532c-4.146,0-8.027,1.381-11.225,3.995
		c-0.669,0.549-1.077,1.358-1.119,2.211c-0.052,0.875,0.266,1.703,0.893,2.33l0.282,0.282c0.579,0.578,1.348,0.897,2.167,0.897
		c0.703,0,1.389-0.244,1.932-0.687c2.021-1.639,4.466-2.505,7.071-2.505c2.424,0,4.734,0.764,6.68,2.209
		c0.532,0.395,1.164,0.604,1.827,0.604c0.82,0,1.591-0.319,2.17-0.899l0.28-0.28c0.579-0.578,0.898-1.348,0.898-2.169
		c0-0.065-0.003-0.128-0.008-0.219C32.02,20.039,31.574,19.224,30.861,18.691z"/>
	<path fill="#FFFFFF" d="M39.306,10.569c-0.035-0.852-0.43-1.659-1.085-2.215C33.2,4.116,26.817,1.782,20.236,1.782
		c-6.834,0-13.409,2.496-18.516,7.031c-0.629,0.561-1.005,1.364-1.029,2.2c-0.027,0.853,0.294,1.657,0.901,2.262l0.277,0.276
		c0.578,0.576,1.345,0.893,2.162,0.893l0,0c0.749,0,1.471-0.274,2.034-0.771c3.911-3.464,8.943-5.371,14.17-5.371
		c5.025,0,9.911,1.782,13.759,5.019c0.552,0.463,1.253,0.717,1.973,0.717c0.821,0,1.591-0.32,2.164-0.895l0.283-0.28
		c0.577-0.581,0.894-1.35,0.894-2.166C39.309,10.638,39.308,10.582,39.306,10.569z"/>
</g>
</svg>
