<?xml version="1.0" encoding="utf-8"?>
<!-- Generator: Adobe Illustrator 17.0.1, SVG Export Plug-In . SVG Version: 6.00 Build 0)  -->
<!DOCTYPE svg PUBLIC "-//W3C//DTD SVG 1.1//EN" "http://www.w3.org/Graphics/SVG/1.1/DTD/svg11.dtd">
<svg version="1.1" id="Layer_1" xmlns="http://www.w3.org/2000/svg" xmlns:xlink="http://www.w3.org/1999/xlink" x="0px" y="0px"
	 width="40px" height="40px" viewBox="0 0 40 40" enable-background="new 0 0 40 40" xml:space="preserve">
<path fill="#FFFFFF" d="M34.801,22.581v2.153c0,0.7-0.535,1.267-1.197,1.267h-5.909c-0.662,0-1.197-0.567-1.197-1.267v-2.153
	c0-0.614,0.411-1.125,0.959-1.242v-2.424c0-0.433-0.333-0.785-0.741-0.785h-0.243c-1.101,2.098-3.178,3.412-5.494,3.412
	c-2.317,0-4.393-1.313-5.494-3.412H6.396c-0.661,0-1.197-0.567-1.197-1.267v-4.184c0-0.701,0.536-1.267,1.197-1.267h9.212
	c0.758-1.313,1.919-2.295,3.264-2.804V7.034c0-0.087,0.009-0.171,0.024-0.253h-3.213c-0.661,0-1.197-0.567-1.197-1.267V3.699
	c0-0.7,0.536-1.267,1.197-1.267h3.189V2.274c0-0.7,0.536-1.267,1.197-1.267h1.82c0.661,0,1.197,0.568,1.197,1.267v0.158h3.189
	c0.662,0,1.197,0.568,1.197,1.267v1.815c0,0.7-0.535,1.267-1.197,1.267h-3.213c0.016,0.082,0.024,0.167,0.024,0.253v1.574
	c1.346,0.508,2.506,1.49,3.265,2.804h2.303c2.819,0,5.112,2.427,5.112,5.411v4.504C34.35,21.41,34.801,21.939,34.801,22.581
	L34.801,22.581z M33.556,34.75c-0.014-0.077-0.035-0.15-0.062-0.221l-1.78-6.001c-0.156-0.529-0.619-0.888-1.142-0.888
	s-0.986,0.359-1.142,0.888l-1.806,6.091c-0.009,0.03-0.017,0.061-0.023,0.091c-0.096,0.322-0.144,0.652-0.144,0.985
	c0,1.819,1.398,3.299,3.116,3.299s3.116-1.479,3.116-3.299C33.689,35.376,33.644,35.058,33.556,34.75L33.556,34.75z"/>
</svg>
