<?xml version="1.0" encoding="utf-8"?>
<!-- Generator: Adobe Illustrator 17.0.1, SVG Export Plug-In . SVG Version: 6.00 Build 0)  -->
<!DOCTYPE svg PUBLIC "-//W3C//DTD SVG 1.1//EN" "http://www.w3.org/Graphics/SVG/1.1/DTD/svg11.dtd">
<svg version="1.1" id="Layer_1" xmlns="http://www.w3.org/2000/svg" xmlns:xlink="http://www.w3.org/1999/xlink" x="0px" y="0px"
	 width="40px" height="40px" viewBox="0 0 40 40" enable-background="new 0 0 40 40" xml:space="preserve">
<path fill="#7F7F7F" d="M34.425,7.505c-3.595-3.595-8.375-5.575-13.46-5.575c-5.085,0-9.865,1.98-13.46,5.575
	C3.909,11.1,1.929,15.88,1.929,20.965s1.98,9.865,5.575,13.46C11.1,38.02,15.88,40,20.965,40s9.865-1.98,13.46-5.575
	C38.02,30.829,40,26.049,40,20.965C40,15.88,38.02,11.1,34.425,7.505z M38.101,20.965c0,9.449-7.687,17.136-17.136,17.136
	c-4.134,0-8.121-1.496-11.242-4.215L33.109,8.887C36.329,12.124,38.101,16.408,38.101,20.965z M31.697,7.616L8.361,32.562
	c-2.924-3.175-4.533-7.288-4.533-11.597c0-9.449,7.687-17.136,17.136-17.136C24.858,3.828,28.664,5.172,31.697,7.616z"/>
<g>
	<g>
		<path fill="#7F7F7F" d="M22.608,23.836v-1.931c0-0.761-0.619-1.381-1.381-1.381s-1.381,0.619-1.381,1.381v1.744
			c0,2.101-0.774,4.118-2.18,5.68l-1.938,2.153c-0.163,0.181-0.148,0.46,0.033,0.622c0.181,0.163,0.46,0.148,0.622-0.033
			l1.938-2.153c1.551-1.724,2.406-3.95,2.406-6.27v-1.744c0-0.275,0.224-0.5,0.5-0.5s0.5,0.224,0.5,0.5v1.931
			c0,2.585-0.958,5.063-2.697,6.976l-1.889,2.078c-0.164,0.18-0.15,0.459,0.03,0.623c0.085,0.077,0.191,0.115,0.296,0.115
			c0.12,0,0.239-0.049,0.326-0.144l1.889-2.078C21.569,29.329,22.608,26.641,22.608,23.836L22.608,23.836z M22.608,23.836"/>
		<path fill="#7F7F7F" d="M24.489,21.905c0-1.798-1.463-3.261-3.261-3.261c-1.798,0-3.261,1.463-3.261,3.261v1.744
			c0,1.636-0.603,3.206-1.697,4.422l-1.378,1.531c-0.163,0.181-0.148,0.46,0.033,0.623c0.181,0.163,0.46,0.148,0.623-0.033
			l1.378-1.531c1.24-1.378,1.923-3.158,1.923-5.012v-1.744c0-1.312,1.067-2.38,2.38-2.38s2.38,1.067,2.38,2.38v1.931
			c0,3.054-1.131,5.981-3.186,8.241l-1.594,1.753c-0.164,0.18-0.15,0.459,0.03,0.623c0.084,0.077,0.191,0.114,0.296,0.114
			c0.12,0,0.239-0.048,0.326-0.144l1.594-1.753c2.202-2.423,3.415-5.56,3.415-8.834V21.905z M24.489,21.905"/>
		<path fill="#7F7F7F" d="M26.369,21.905c0-2.835-2.306-5.141-5.141-5.141c-2.835,0-5.141,2.306-5.141,5.141v1.744
			c0,1.17-0.431,2.294-1.214,3.164l-1.241,1.378c-0.163,0.181-0.148,0.459,0.033,0.622c0.181,0.163,0.46,0.148,0.622-0.033
			l1.241-1.378c0.929-1.032,1.441-2.365,1.441-3.754v-1.744c0-2.349,1.911-4.26,4.26-4.26c2.349,0,4.26,1.911,4.26,4.26v1.931
			c0,3.523-1.305,6.899-3.675,9.506l-0.441,0.485c-0.163,0.18-0.15,0.459,0.03,0.623c0.084,0.077,0.19,0.114,0.296,0.114
			c0.12,0,0.239-0.048,0.326-0.144l0.441-0.485c2.518-2.77,3.904-6.356,3.904-10.099V21.905z M26.369,21.905"/>
		<path fill="#7F7F7F" d="M14.206,21.905c0,0.243,0.197,0.441,0.441,0.441c0.244,0,0.441-0.197,0.441-0.441
			c0-1.484,0.539-2.918,1.517-4.037c0.969-1.109,2.3-1.834,3.746-2.041c0.241-0.034,0.408-0.258,0.374-0.499
			c-0.035-0.241-0.258-0.408-0.499-0.374c-1.655,0.238-3.176,1.066-4.284,2.333C14.822,18.568,14.206,20.207,14.206,21.905
			L14.206,21.905z M14.206,21.905"/>
		<path fill="#7F7F7F" d="M15.087,23.648c0-0.244-0.197-0.441-0.441-0.441c-0.243,0-0.441,0.197-0.441,0.441
			c0,0.705-0.26,1.382-0.731,1.906l-1.103,1.226c-0.163,0.181-0.148,0.459,0.033,0.622c0.084,0.076,0.19,0.113,0.295,0.113
			c0.121,0,0.241-0.049,0.328-0.146l1.103-1.226C14.747,25.458,15.087,24.572,15.087,23.648L15.087,23.648z M15.087,23.648"/>
		<path fill="#7F7F7F" d="M27.384,27.582c-0.236-0.061-0.476,0.079-0.538,0.315c-0.163,0.621-0.365,1.239-0.602,1.837
			c-0.09,0.226,0.021,0.483,0.247,0.572c0.053,0.021,0.108,0.031,0.162,0.031c0.176,0,0.341-0.105,0.41-0.278
			c0.25-0.63,0.463-1.282,0.635-1.938C27.761,27.885,27.62,27.644,27.384,27.582L27.384,27.582z M27.384,27.582"/>
		<path fill="#7F7F7F" d="M25.917,16.683c-0.181-0.163-0.46-0.148-0.622,0.033c-0.163,0.181-0.148,0.46,0.033,0.622
			c1.296,1.165,2.04,2.83,2.04,4.566v1.931c0,0.733-0.051,1.471-0.15,2.195c-0.033,0.241,0.135,0.463,0.376,0.497
			c0.02,0.003,0.04,0.004,0.061,0.004c0.217,0,0.406-0.16,0.436-0.38c0.105-0.763,0.158-1.543,0.158-2.316v-1.931
			C28.249,19.919,27.399,18.015,25.917,16.683L25.917,16.683z M25.917,16.683"/>
		<path fill="#7F7F7F" d="M23.857,16.357c0.061,0.029,0.126,0.043,0.189,0.043c0.165,0,0.323-0.093,0.398-0.251
			c0.105-0.219,0.011-0.483-0.208-0.587c-0.635-0.302-1.31-0.506-2.006-0.606c-0.241-0.034-0.464,0.133-0.499,0.374
			c-0.034,0.241,0.132,0.464,0.374,0.499C22.713,15.914,23.302,16.093,23.857,16.357L23.857,16.357z M23.857,16.357"/>
		<path fill="#7F7F7F" d="M21.228,13.003c-0.165,0-0.332,0.005-0.496,0.013c-0.243,0.014-0.429,0.222-0.416,0.464
			c0.014,0.243,0.221,0.43,0.464,0.416c0.148-0.008,0.298-0.012,0.447-0.012c4.422,0,8.021,3.598,8.021,8.021v1.931
			c0,0.244,0.197,0.441,0.441,0.441c0.243,0,0.441-0.197,0.441-0.441v-1.931C30.13,16.996,26.136,13.003,21.228,13.003
			L21.228,13.003z M21.228,13.003"/>
		<path fill="#7F7F7F" d="M16.409,15.394c0.087,0,0.175-0.026,0.251-0.079c0.733-0.51,1.538-0.891,2.393-1.132
			c0.234-0.066,0.371-0.31,0.305-0.544c-0.066-0.234-0.31-0.37-0.544-0.304c-0.95,0.268-1.844,0.69-2.658,1.256
			c-0.2,0.139-0.249,0.414-0.11,0.613C16.132,15.328,16.269,15.394,16.409,15.394L16.409,15.394z M16.409,15.394"/>
		<path fill="#7F7F7F" d="M21.228,9.242c-0.986,0-1.968,0.114-2.919,0.339c-0.237,0.056-0.383,0.294-0.327,0.53
			c0.056,0.237,0.294,0.384,0.531,0.327c0.885-0.209,1.798-0.316,2.716-0.316c3.231,0,6.248,1.287,8.494,3.625
			c0.086,0.09,0.202,0.135,0.318,0.135c0.11,0,0.22-0.041,0.305-0.123c0.175-0.169,0.181-0.448,0.012-0.623
			c-1.17-1.218-2.544-2.176-4.085-2.848C24.676,9.595,22.979,9.242,21.228,9.242L21.228,9.242z M21.228,9.242"/>
		<path fill="#7F7F7F" d="M11.328,14.731c0.081,0.063,0.176,0.094,0.271,0.094c0.131,0,0.261-0.058,0.347-0.169
			c1.256-1.604,2.909-2.863,4.782-3.639c0.225-0.093,0.331-0.351,0.238-0.576c-0.093-0.225-0.351-0.331-0.576-0.238
			c-2.012,0.834-3.789,2.187-5.138,3.91C11.103,14.303,11.137,14.581,11.328,14.731L11.328,14.731z M11.328,14.731"/>
		<path fill="#7F7F7F" d="M15.117,9.637c0.064,0,0.13-0.014,0.191-0.044c1.855-0.896,3.847-1.35,5.919-1.35
			c1.08,0,2.155,0.127,3.197,0.378c0.237,0.057,0.475-0.089,0.532-0.325c0.057-0.237-0.089-0.475-0.325-0.532
			c-1.109-0.267-2.253-0.402-3.403-0.402c-2.206,0-4.327,0.484-6.303,1.438c-0.219,0.106-0.311,0.369-0.205,0.588
			C14.796,9.546,14.953,9.637,15.117,9.637L15.117,9.637z M15.117,9.637"/>
		<path fill="#7F7F7F" d="M26.266,9.206c0.454,0.181,0.904,0.389,1.336,0.618c0.066,0.035,0.137,0.051,0.206,0.051
			c0.158,0,0.311-0.085,0.39-0.234c0.114-0.215,0.032-0.482-0.183-0.596c-0.46-0.244-0.939-0.465-1.423-0.658
			c-0.226-0.09-0.483,0.02-0.573,0.246C25.929,8.86,26.04,9.116,26.266,9.206L26.266,9.206z M26.266,9.206"/>
		<path fill="#7F7F7F" d="M13.207,23.648v-1.744c0-2.05,0.776-4.003,2.186-5.498c0.167-0.177,0.159-0.456-0.018-0.623
			c-0.177-0.167-0.456-0.159-0.623,0.018c-1.564,1.66-2.426,3.827-2.426,6.103v1.744c0,0.24-0.088,0.47-0.249,0.648L11.533,24.9
			c-0.163,0.181-0.148,0.46,0.033,0.622c0.084,0.076,0.19,0.113,0.295,0.113c0.121,0,0.241-0.049,0.328-0.146l0.543-0.604
			C13.038,24.546,13.207,24.106,13.207,23.648L13.207,23.648z M13.207,23.648"/>
		<path fill="#7F7F7F" d="M31.45,18.473c-0.483-1.436-1.251-2.734-2.283-3.857c-0.165-0.179-0.443-0.191-0.623-0.026
			c-0.179,0.165-0.191,0.444-0.026,0.623c0.948,1.031,1.653,2.223,2.097,3.542c0.062,0.184,0.234,0.3,0.417,0.3
			c0.046,0,0.094-0.007,0.141-0.023C31.404,18.954,31.528,18.704,31.45,18.473L31.45,18.473z M31.45,18.473"/>
		<path fill="#7F7F7F" d="M24.71,11.7c-0.23-0.079-0.481,0.044-0.56,0.274c-0.079,0.23,0.044,0.481,0.274,0.559
			c0.972,0.333,1.884,0.814,2.712,1.432c0.079,0.059,0.172,0.088,0.263,0.088c0.134,0,0.267-0.061,0.354-0.177
			c0.146-0.195,0.106-0.471-0.09-0.617C26.763,12.587,25.769,12.062,24.71,11.7L24.71,11.7z M24.71,11.7"/>
		<path fill="#7F7F7F" d="M14.38,14.76c1.854-1.777,4.286-2.756,6.847-2.756c0.476,0,0.954,0.034,1.422,0.102
			c0.241,0.035,0.464-0.133,0.499-0.373c0.035-0.241-0.132-0.464-0.373-0.499c-0.509-0.073-1.03-0.111-1.548-0.111
			c-2.79,0-5.439,1.066-7.457,3.002c-2.012,1.93-3.189,4.519-3.314,7.291c-0.011,0.243,0.177,0.449,0.42,0.46
			c0.007,0.001,0.014,0.001,0.02,0.001c0.234,0,0.429-0.185,0.44-0.421C11.451,18.91,12.532,16.532,14.38,14.76L14.38,14.76z
			 M14.38,14.76"/>
	</g>
</g>
</svg>
